<?xml version="1.0" standalone="no"?>
<!DOCTYPE svg PUBLIC "-//W3C//DTD SVG 20010904//EN"
 "http://www.w3.org/TR/2001/REC-SVG-20010904/DTD/svg10.dtd">
<svg version="1.0" xmlns="http://www.w3.org/2000/svg"
 width="2000.000000pt" height="4296.000000pt" viewBox="0 0 2000.000000 4296.000000"
 preserveAspectRatio="xMidYMid meet">
<metadata>
Created by potrace 1.16, written by Peter Selinger 2001-2019
</metadata>
<g transform="translate(0.000000,4296.000000) scale(0.100000,-0.100000)"
fill="#000000" stroke="none">
<path d="M9570 27045 c-96 -13 -194 -24 -218 -24 -23 -1 -59 -8 -80 -17 -20
-9 -59 -19 -87 -24 -71 -11 -224 -50 -260 -65 -61 -26 -141 -54 -175 -61 -19
-3 -51 -15 -70 -24 -19 -10 -60 -28 -90 -40 -74 -30 -180 -81 -185 -90 -3 -4
-17 -11 -32 -15 -15 -3 -54 -23 -85 -43 -31 -20 -89 -57 -129 -82 -39 -25 -96
-64 -125 -87 -29 -24 -56 -43 -61 -43 -13 0 -236 -220 -288 -285 -26 -33 -51
-62 -54 -65 -3 -3 -22 -27 -41 -55 -19 -27 -42 -57 -52 -67 -10 -10 -18 -26
-18 -37 0 -10 -7 -24 -15 -31 -15 -13 -75 -130 -75 -147 0 -6 -6 -16 -14 -22
-8 -7 -18 -27 -21 -44 -4 -18 -13 -39 -20 -47 -7 -8 -18 -41 -24 -72 -6 -32
-17 -71 -26 -87 -8 -17 -15 -42 -15 -56 0 -14 -8 -42 -19 -63 -47 -94 -49
-698 -2 -792 10 -19 21 -53 25 -75 4 -22 11 -44 16 -50 4 -5 13 -33 18 -61 6
-29 29 -89 52 -135 22 -46 40 -90 40 -98 0 -8 9 -24 19 -35 11 -12 32 -44 48
-72 40 -72 100 -160 152 -224 61 -76 260 -267 354 -342 42 -34 77 -66 77 -72
0 -20 -39 -75 -61 -86 -55 -30 -421 -424 -543 -585 -184 -244 -235 -458 -134
-562 72 -75 167 -103 346 -103 114 0 291 17 363 36 31 8 72 14 90 14 19 1 52
9 74 20 22 11 51 20 65 20 23 0 185 44 255 70 17 6 77 26 135 45 58 19 137 46
175 60 39 15 86 31 105 37 19 6 45 19 59 29 13 11 30 19 38 19 8 0 27 6 41 14
15 8 77 36 137 61 61 26 121 53 135 60 14 8 54 28 90 45 36 17 76 37 90 44 29
16 114 58 150 75 14 6 46 24 71 40 25 16 57 32 70 36 13 4 47 22 75 41 29 19
63 38 77 43 13 5 48 25 78 44 30 19 65 38 79 42 14 4 34 15 45 24 34 28 84 61
92 61 4 0 37 20 73 45 36 25 68 45 72 45 5 0 29 15 55 33 27 19 73 48 103 66
64 37 118 74 141 94 9 8 45 34 80 58 35 23 103 71 150 106 48 35 90 63 94 63
4 0 30 20 58 44 29 24 66 52 83 62 17 11 44 29 60 42 16 13 68 53 115 90 318
248 527 429 744 647 190 191 260 267 278 302 5 10 24 34 42 53 17 19 44 58 60
85 15 28 35 58 43 68 9 10 21 32 28 50 76 198 78 215 41 299 -32 71 -78 102
-197 135 -100 27 -210 30 -309 9 -36 -8 -95 -19 -131 -25 -197 -31 -268 -44
-295 -57 -16 -8 -46 -17 -65 -20 -43 -8 -70 -30 -70 -58 0 -12 11 -50 23 -86
l23 -65 43 -3 c24 -2 89 4 143 12 132 21 175 20 243 -6 61 -23 93 -58 102
-111 6 -40 -28 -170 -51 -193 -9 -8 -16 -21 -16 -27 0 -12 -31 -62 -93 -150
-95 -136 -443 -481 -628 -623 -42 -33 -119 -93 -170 -134 -52 -42 -105 -84
-119 -93 -14 -10 -50 -36 -80 -58 -30 -21 -91 -64 -135 -95 -44 -30 -98 -69
-120 -85 -33 -24 -212 -143 -276 -184 -80 -51 -179 -117 -201 -134 -14 -12
-33 -21 -41 -21 -9 0 -28 -11 -44 -24 -27 -22 -105 -68 -185 -108 -20 -10 -40
-22 -43 -28 -3 -5 -15 -10 -25 -10 -10 0 -31 -11 -47 -24 -45 -37 -248 -142
-473 -245 -14 -7 -50 -25 -80 -41 -30 -16 -65 -30 -76 -30 -12 0 -33 -9 -47
-20 -14 -11 -31 -20 -39 -20 -7 0 -25 -8 -38 -17 -14 -10 -43 -23 -65 -30 -68
-20 -143 -49 -158 -61 -8 -7 -29 -15 -48 -18 -19 -4 -52 -14 -74 -24 -70 -30
-138 -51 -215 -66 -41 -9 -94 -22 -118 -30 -23 -8 -59 -14 -80 -14 -20 0 -59
-7 -86 -15 -30 -9 -90 -15 -154 -15 -129 0 -213 24 -263 76 -29 30 -34 42 -37
97 -3 51 1 76 20 123 25 62 106 194 119 194 4 0 19 20 33 45 15 24 85 103 158
175 l131 131 -7 86 c-16 216 -17 325 -3 473 8 86 22 178 30 205 31 98 57 190
57 199 0 12 80 198 102 236 4 8 17 33 29 55 38 75 58 108 86 144 16 20 36 47
45 61 53 84 324 350 356 350 5 0 17 10 28 21 17 19 73 55 152 99 15 8 38 23
52 33 13 9 33 17 43 17 10 0 30 9 44 20 14 11 33 20 42 20 9 0 30 9 46 20 17
11 41 20 55 20 14 1 43 8 65 16 22 9 65 21 95 29 30 7 69 18 85 26 45 20 713
20 772 0 37 -12 45 -12 67 3 14 9 35 35 47 58 42 82 154 176 269 226 48 21 71
24 190 26 126 1 139 -1 205 -27 39 -16 86 -39 105 -53 19 -13 50 -34 68 -45
17 -12 32 -25 32 -29 0 -5 16 -18 36 -31 34 -21 37 -21 70 -5 19 9 44 16 55
16 11 0 41 9 67 19 26 11 72 25 102 32 88 19 150 52 230 124 41 36 87 73 103
81 15 8 27 18 27 22 0 4 37 36 82 72 135 107 197 171 209 213 24 90 -28 180
-166 287 -39 29 -77 59 -85 67 -12 11 -87 59 -185 120 -11 7 -54 30 -95 50
-41 20 -101 52 -133 70 -33 18 -64 33 -70 33 -7 0 -34 11 -62 25 -27 13 -54
25 -58 25 -5 0 -20 9 -34 20 -14 11 -34 20 -45 20 -17 0 -103 35 -153 62 -10
6 -42 17 -70 24 -68 17 -142 42 -190 64 -22 10 -63 20 -90 23 -28 3 -71 13
-95 21 -25 9 -57 16 -71 16 -15 0 -46 9 -70 20 -24 11 -62 20 -84 20 -22 0
-130 11 -239 25 -270 34 -570 34 -826 0z"/>
<path d="M10890 25471 c-93 -30 -136 -65 -204 -166 -30 -43 -35 -61 -41 -130
-8 -98 7 -210 32 -238 10 -11 48 -51 86 -88 64 -64 71 -68 144 -84 80 -18 143
-17 238 4 41 9 62 23 114 73 87 84 115 145 119 262 4 79 1 96 -24 158 -39 96
-125 178 -220 207 -81 26 -170 26 -244 2z"/>
<path d="M9854 25161 c-49 -4 -95 -10 -101 -14 -6 -4 -54 -13 -108 -21 -53 -8
-107 -22 -120 -30 -14 -9 -32 -16 -41 -16 -9 0 -35 -9 -58 -20 -23 -10 -60
-24 -82 -30 -23 -5 -47 -17 -54 -25 -7 -8 -19 -15 -26 -15 -7 0 -21 -11 -30
-24 -15 -24 -14 -28 25 -94 23 -37 41 -72 41 -77 0 -5 8 -17 18 -28 15 -17 17
-42 17 -211 0 -209 5 -186 -69 -310 -76 -124 -208 -212 -362 -242 -121 -22
-236 -13 -371 30 -28 9 -46 -23 -67 -120 -46 -213 -56 -385 -32 -516 9 -46 16
-100 16 -120 0 -39 55 -264 69 -282 4 -6 11 -24 15 -40 11 -47 94 -208 126
-245 31 -36 29 -36 132 -11 26 6 52 18 59 26 6 8 19 14 28 14 9 0 32 8 51 19
19 10 51 22 70 26 19 4 42 13 50 20 8 7 49 27 90 45 63 27 267 126 360 175 14
7 36 18 50 24 25 10 126 66 231 127 30 17 65 35 79 39 14 4 40 20 59 34 19 14
51 35 73 46 57 30 356 214 380 234 7 6 63 44 123 84 61 40 130 87 155 106 25
18 52 36 60 38 8 3 24 15 35 25 11 11 52 43 92 71 182 131 411 312 511 403 77
71 86 93 54 135 -11 13 -32 47 -47 74 -37 65 -72 107 -101 123 -20 10 -32 10
-72 -3 -37 -12 -77 -15 -168 -12 -161 5 -219 26 -361 129 -60 44 -147 168
-163 233 -15 61 -41 148 -49 164 -4 8 -47 25 -97 37 -101 26 -334 38 -490 25z"/>
<path d="M8990 24805 c-112 -71 -269 -256 -346 -408 -20 -40 -43 -79 -51 -89
-25 -28 -13 -79 24 -104 54 -36 231 -43 311 -13 42 16 162 100 162 113 0 8 7
19 16 27 8 7 29 42 46 78 29 61 30 70 26 167 -2 76 -8 107 -20 121 -8 10 -19
29 -23 43 -10 31 -64 100 -80 100 -6 0 -35 -16 -65 -35z"/>
<path d="M11776 23871 c-3 -4 -1 -23 5 -42 15 -52 22 -362 10 -469 -15 -141
-46 -301 -65 -337 -9 -18 -16 -40 -16 -49 0 -27 -57 -168 -117 -289 -25 -49
-33 -64 -99 -177 -18 -29 -54 -80 -80 -113 -27 -33 -58 -71 -69 -85 -47 -58
-181 -191 -217 -217 -22 -15 -55 -41 -74 -58 -31 -28 -70 -54 -202 -132 -53
-31 -168 -86 -284 -136 -20 -9 -68 -21 -105 -28 -37 -6 -77 -16 -88 -22 -11
-6 -54 -16 -95 -24 -41 -7 -104 -18 -140 -24 -84 -15 -475 -16 -560 -1 -133
23 -186 34 -215 47 -16 8 -57 19 -90 26 -32 6 -75 18 -95 26 -222 94 -368 174
-476 261 -57 46 -72 49 -112 28 -15 -8 -74 -26 -132 -40 -58 -15 -134 -35
-170 -46 -80 -24 -226 -56 -300 -65 -30 -4 -62 -11 -71 -16 -76 -40 -511 -432
-610 -551 -31 -36 -41 -58 -46 -96 -11 -94 2 -134 71 -220 71 -88 181 -197
241 -238 22 -14 60 -44 85 -64 85 -71 325 -229 443 -292 18 -9 37 -21 42 -25
6 -5 78 -41 160 -82 83 -40 157 -77 165 -82 40 -25 176 -79 197 -79 10 0 23
-4 29 -10 11 -11 98 -42 194 -70 36 -10 97 -28 135 -40 100 -31 184 -50 226
-50 19 0 55 -6 80 -14 24 -8 94 -20 154 -26 61 -6 142 -15 180 -20 89 -11 560
-11 640 0 33 5 107 14 165 20 58 6 119 15 135 21 17 5 66 14 110 20 44 5 112
19 150 30 39 11 99 29 135 39 36 11 88 26 115 35 28 9 68 21 90 26 22 6 47 16
55 23 8 7 28 16 44 20 61 15 327 149 456 231 186 117 258 174 389 304 143 143
191 197 241 271 19 28 45 64 56 78 12 15 25 38 29 52 4 14 13 32 20 40 19 22
75 131 75 145 0 7 7 18 15 25 8 7 15 20 15 30 0 9 9 28 19 42 11 13 24 49 30
81 6 31 17 70 26 86 8 17 15 39 15 49 0 11 8 39 19 63 23 55 46 277 46 454 0
196 -23 442 -46 488 -11 21 -19 49 -19 63 0 14 -6 37 -14 52 -8 15 -20 55 -26
89 -7 35 -19 68 -26 74 -8 6 -14 16 -14 22 0 9 -43 105 -61 137 -5 8 -18 33
-30 55 -40 80 -53 101 -103 170 -28 39 -59 81 -68 95 -54 82 -273 309 -394
407 -88 72 -100 81 -131 97 -37 19 -40 19 -47 7z"/>
<path d="M11503 23677 c-78 -63 -190 -147 -252 -190 -31 -21 -67 -49 -81 -62
-14 -14 -40 -30 -58 -36 -18 -6 -32 -15 -32 -19 0 -8 -85 -70 -97 -70 -3 0
-28 -18 -55 -40 -28 -22 -56 -40 -63 -40 -6 0 -38 -20 -69 -45 -32 -25 -63
-45 -68 -45 -6 0 -32 -18 -58 -40 -26 -22 -54 -40 -61 -40 -7 0 -24 -11 -38
-24 -15 -13 -47 -36 -74 -49 -26 -14 -65 -39 -86 -56 -21 -17 -50 -35 -64 -40
-14 -6 -49 -26 -76 -46 -28 -19 -54 -35 -59 -35 -4 0 -41 -20 -81 -45 -40 -25
-77 -45 -83 -45 -5 0 -22 -8 -36 -19 -29 -20 -200 -112 -267 -144 -22 -10 -47
-22 -55 -27 -77 -44 -387 -190 -403 -190 -8 0 -22 -9 -31 -19 -10 -10 -32 -22
-51 -25 -18 -4 -38 -13 -45 -21 -6 -7 -25 -17 -41 -20 -40 -9 -37 -35 9 -69
76 -55 157 -105 173 -106 9 0 24 -9 34 -20 10 -11 25 -20 34 -20 9 0 34 -9 56
-20 21 -11 63 -24 92 -30 30 -5 64 -16 76 -25 12 -8 38 -15 58 -15 20 0 56 -8
80 -17 37 -14 85 -17 294 -17 218 -1 258 1 315 18 80 24 99 39 83 65 -17 27
-26 185 -15 267 22 165 150 332 321 418 127 65 426 47 521 -30 8 -7 27 -15 41
-19 25 -6 31 0 75 67 27 40 66 114 87 163 41 96 97 283 97 325 0 14 9 51 20
83 17 49 20 82 20 241 0 101 -3 191 -6 200 -9 24 -24 19 -81 -27z"/>
<path d="M10808 22515 c-60 -26 -139 -92 -163 -134 -62 -114 -75 -154 -75
-229 0 -58 5 -82 21 -108 22 -37 33 -40 76 -23 149 60 299 162 435 297 59 58
108 111 108 117 0 19 -42 52 -100 79 -47 22 -69 26 -150 25 -78 0 -105 -4
-152 -24z"/>
<path d="M3510 18555 c-86 -19 -156 -42 -187 -61 -110 -67 -179 -128 -204
-179 -9 -16 -20 -39 -26 -50 -47 -89 -53 -112 -53 -216 1 -68 6 -118 16 -144
8 -22 20 -55 25 -73 17 -55 49 -104 113 -170 48 -49 83 -73 161 -112 96 -47
105 -49 228 -59 70 -6 359 -11 643 -11 358 0 529 -4 562 -12 56 -13 125 -66
142 -109 18 -41 8 -146 -17 -187 -32 -53 -76 -78 -156 -91 -52 -8 -274 -10
-818 -6 -634 5 -748 3 -758 -8 -8 -10 -11 -72 -9 -208 l3 -194 835 0 c861 0
854 0 1045 40 100 22 162 51 249 120 53 43 142 162 152 205 3 14 15 54 25 89
42 140 8 364 -71 463 -22 28 -40 57 -40 64 0 7 -10 19 -22 25 -13 7 -42 28
-66 47 -39 32 -141 82 -167 82 -6 0 -29 10 -50 22 -40 22 -44 22 -695 28 -721
6 -680 2 -743 68 -39 41 -51 97 -33 157 19 60 48 89 121 114 59 21 72 21 847
21 l788 0 14 23 c17 26 22 270 6 311 l-10 26 -897 -1 c-677 -1 -912 -4 -953
-14z"/>
<path d="M6123 18555 l-22 -16 -1 -919 c0 -909 0 -920 20 -940 19 -19 33 -20
273 -20 141 0 259 4 267 10 13 8 16 64 20 372 l5 363 540 5 540 6 80 28 c44
16 103 40 130 53 107 54 206 173 250 298 25 74 27 87 23 224 l-3 146 -43 85
c-24 48 -64 106 -90 133 -62 63 -167 123 -272 155 l-85 26 -805 3 c-718 3
-807 2 -827 -12z m1412 -364 c69 -17 85 -25 117 -60 38 -40 38 -41 38 -125 0
-81 -2 -87 -31 -120 -56 -64 -87 -76 -216 -86 -165 -13 -719 -13 -744 0 -18
10 -19 23 -19 195 0 154 3 186 16 199 13 14 62 16 387 16 331 0 381 -2 452
-19z"/>
<path d="M9850 18559 c-132 -25 -161 -40 -246 -125 -45 -45 -85 -92 -89 -105
-9 -35 -64 -147 -74 -154 -5 -2 -12 -21 -15 -40 -4 -20 -23 -65 -41 -102 -19
-36 -40 -84 -46 -107 -6 -23 -26 -72 -44 -111 -18 -38 -45 -103 -60 -143 -16
-40 -34 -77 -41 -82 -6 -6 -15 -27 -19 -48 -9 -47 -43 -130 -67 -161 -10 -13
-18 -33 -18 -45 0 -11 -11 -43 -25 -71 -13 -27 -25 -55 -25 -61 0 -6 -7 -17
-15 -24 -8 -7 -17 -28 -21 -49 -3 -20 -23 -72 -43 -116 -21 -44 -48 -107 -61
-140 -12 -33 -31 -73 -41 -90 -26 -45 -34 -99 -16 -113 18 -15 552 -11 566 4
5 5 21 38 35 74 15 36 36 83 46 105 11 22 26 59 35 83 39 107 47 128 60 142 7
8 15 29 18 45 7 38 48 148 63 166 7 8 15 30 19 49 4 19 16 49 26 66 10 17 19
39 19 49 0 9 9 28 20 42 11 14 20 34 20 45 0 10 8 35 19 56 10 20 21 50 25 67
4 16 13 36 19 43 9 12 17 32 57 142 7 19 17 42 21 50 5 8 14 26 20 40 40 93
67 134 109 163 l45 32 140 0 140 0 50 -35 c39 -28 58 -52 87 -110 21 -41 47
-104 58 -139 11 -36 24 -69 29 -75 10 -12 61 -138 61 -150 0 -4 15 -39 34 -79
18 -40 39 -90 45 -112 7 -22 28 -73 47 -112 19 -40 37 -87 40 -105 4 -18 14
-44 23 -58 17 -27 34 -69 58 -140 8 -25 19 -52 24 -60 5 -8 12 -22 15 -30 4
-8 17 -38 30 -67 13 -28 24 -62 24 -75 0 -23 50 -106 73 -120 7 -4 128 -8 269
-8 220 0 259 2 272 16 9 8 16 17 16 20 0 11 -41 124 -54 150 -30 58 -66 143
-66 156 0 8 -7 23 -15 34 -15 23 -37 78 -62 159 -9 28 -20 56 -26 63 -10 12
-46 98 -122 287 -15 39 -45 107 -66 152 -22 46 -39 88 -39 95 0 12 -19 55 -66
153 -13 28 -24 60 -24 71 0 12 -8 32 -18 45 -19 26 -57 109 -68 149 -3 14 -24
55 -45 92 -22 36 -39 70 -39 75 0 11 -86 93 -122 116 -40 25 -124 54 -192 66
-71 13 -680 13 -746 0z"/>
<path d="M12831 18554 c-41 -7 -88 -18 -104 -24 -17 -5 -40 -10 -52 -10 -13 0
-28 -6 -34 -14 -7 -8 -27 -18 -44 -22 -44 -9 -130 -59 -220 -128 -98 -75 -229
-283 -249 -396 -44 -244 -48 -425 -13 -620 25 -144 90 -277 180 -372 108 -114
169 -159 280 -206 119 -51 170 -63 415 -92 41 -5 332 -9 646 -9 481 -1 573 1
583 13 12 15 17 368 6 387 -4 5 -211 9 -528 9 -614 1 -754 8 -824 44 -97 48
-161 136 -197 268 -25 89 -22 390 4 493 11 43 27 86 35 95 8 9 15 23 15 31 0
27 86 107 152 141 l63 33 625 3 c425 2 628 6 637 14 18 14 19 348 1 366 -18
18 -1275 15 -1377 -4z"/>
<path d="M15445 18564 c-122 -25 -214 -51 -234 -66 -13 -10 -30 -18 -38 -18
-28 0 -170 -111 -233 -184 -25 -28 -59 -78 -75 -111 -16 -33 -37 -70 -46 -82
-9 -13 -20 -49 -24 -80 -4 -32 -16 -96 -27 -143 -18 -75 -20 -110 -16 -295 3
-127 9 -221 16 -238 7 -16 17 -60 23 -100 6 -39 24 -96 40 -126 15 -31 37 -74
48 -96 30 -64 153 -180 240 -228 139 -76 172 -87 411 -128 86 -14 1413 -12
1428 3 18 18 17 372 -1 390 -11 10 -132 13 -638 11 -712 -2 -789 2 -859 48
-69 45 -99 97 -116 199 -17 104 -17 102 0 125 13 18 43 18 764 16 538 -2 757
1 772 9 20 11 20 17 18 188 l-3 177 -772 5 c-557 4 -775 8 -783 16 -9 9 -8 33
4 94 18 96 54 149 133 197 l48 28 710 3 c544 2 711 5 717 15 13 21 10 351 -4
365 -9 9 -187 12 -748 11 -404 -1 -744 -3 -755 -5z"/>
<path d="M7538 15929 c-16 -9 -18 -32 -18 -257 0 -180 3 -251 12 -260 15 -15
281 -17 309 -2 27 15 25 58 -3 69 -13 5 -63 9 -113 10 -71 1 -93 5 -102 18
-10 12 -13 72 -13 213 0 200 -4 220 -39 220 -9 0 -24 -5 -33 -11z"/>
<path d="M9085 15925 c-11 -8 -36 -25 -55 -38 -19 -12 -45 -38 -57 -57 -13
-19 -30 -44 -38 -55 -11 -14 -15 -44 -15 -109 l0 -90 47 -69 c26 -38 54 -71
62 -74 9 -3 38 -14 66 -25 96 -39 209 -9 291 80 40 42 43 50 49 119 12 126 -8
196 -76 265 -14 15 -38 30 -52 33 -15 4 -31 13 -38 21 -16 20 -158 19 -184 -1z
m202 -128 l53 -54 0 -72 c0 -85 -13 -114 -68 -158 -34 -27 -49 -33 -91 -33
-42 0 -56 5 -86 32 -48 41 -75 97 -75 152 0 57 11 85 51 131 39 44 59 54 118
54 40 1 49 -4 98 -52z"/>
<path d="M10568 15929 c-16 -9 -18 -32 -18 -250 0 -147 4 -248 10 -260 12 -22
62 -26 78 -6 6 7 12 51 14 97 l3 85 32 3 c34 3 39 -2 80 -78 48 -91 75 -120
107 -120 51 0 59 10 42 56 -7 21 -30 63 -49 93 -39 59 -38 75 7 104 56 37 62
166 10 218 -43 43 -128 69 -221 69 -43 0 -86 -5 -95 -11z m226 -103 c33 -21
37 -83 6 -111 -25 -23 -114 -33 -135 -15 -18 15 -21 101 -4 132 9 17 18 20 59
16 27 -3 60 -12 74 -22z"/>
<path d="M12052 15928 c-15 -15 -17 -464 -2 -502 9 -25 11 -26 108 -26 146 0
205 18 268 83 49 50 52 56 58 120 4 38 5 96 1 130 -7 58 -10 65 -60 112 -40
38 -68 55 -116 69 -75 23 -239 32 -257 14z m268 -113 c54 -34 70 -70 70 -152
0 -82 -12 -108 -65 -145 -33 -22 -51 -27 -101 -28 -34 0 -65 5 -72 12 -17 17
-17 309 0 326 7 7 38 12 70 12 45 0 67 -6 98 -25z"/>
</g>
</svg>
